<svg width="15" height="15" viewBox="0 0 15 15" fill="none" xmlns="http://www.w3.org/2000/svg">
<path d="M13.9286 5.89286H9.10714V1.07143C9.10714 0.502232 8.60491 0 8.03571 0H6.96429C6.36161 0 5.89286 0.502232 5.89286 1.07143V5.89286H1.07143C0.46875 5.89286 0 6.39509 0 6.96429V8.03571C0 8.63839 0.46875 9.10714 1.07143 9.10714H5.89286V13.9286C5.89286 14.5313 6.36161 15 6.96429 15H8.03571C8.60491 15 9.10714 14.5313 9.10714 13.9286V9.10714H13.9286C14.4978 9.10714 15 8.63839 15 8.03571V6.96429C15 6.39509 14.4978 5.89286 13.9286 5.89286Z" fill="#C6C6C6"/>
</svg>
