<svg width="18" height="18" viewBox="0 0 18 18" fill="none" xmlns="http://www.w3.org/2000/svg">
<path d="M10.3769 16.3636C10.7761 15.9645 10.7361 15.3659 10.3769 14.9667L5.54767 10.3769H17.0421C17.561 10.3769 18 9.97783 18 9.41907V8.14191C18 7.62306 17.561 7.18404 17.0421 7.18404H5.54767L10.3769 2.63415C10.7361 2.23503 10.7761 1.63636 10.3769 1.23725L9.49889 0.359202C9.13969 0 8.50111 0 8.14191 0.359202L0.399113 8.14191C0 8.50111 0 9.09978 0.399113 9.45898L8.14191 17.2417C8.50111 17.6009 9.09978 17.6009 9.49889 17.2417L10.3769 16.3636Z" fill="white"/>
</svg>
