<svg width="31" height="25" viewBox="0 0 31 25" fill="none" xmlns="http://www.w3.org/2000/svg">
<path d="M24.8 10.85V13.95H31V10.85H24.8ZM21.7 21.0955C23.188 22.196 25.1255 23.653 26.66 24.8C27.28 23.9785 27.9 23.1415 28.52 22.32C26.9855 21.173 25.048 19.716 23.56 18.6C22.94 19.437 22.32 20.274 21.7 21.0955ZM28.52 2.48C27.9 1.6585 27.28 0.8215 26.66 0C25.1255 1.147 23.188 2.604 21.7 3.72C22.32 4.5415 22.94 5.3785 23.56 6.2C25.048 5.084 26.9855 3.6425 28.52 2.48ZM3.1 7.75C1.395 7.75 0 9.145 0 10.85V13.95C0 15.655 1.395 17.05 3.1 17.05H4.65V23.25H7.75V17.05H9.3L17.05 21.7V3.1L9.3 7.75H3.1ZM20.925 12.4C20.925 10.3385 20.026 8.4785 18.6 7.2075V17.577C20.026 16.3215 20.925 14.4615 20.925 12.4Z" fill="#259EA4"/>
</svg>
