<svg width="194" height="194" viewBox="0 0 194 194" fill="none" xmlns="http://www.w3.org/2000/svg">
<path d="M97 0C43.4153 0 0 43.8065 0 97C0 150.585 43.4153 194 97 194C150.194 194 194 150.585 194 97C194 43.8065 150.194 0 97 0ZM97 18.7742C140.024 18.7742 175.226 53.9758 175.226 97C175.226 140.415 140.024 175.226 97 175.226C53.5847 175.226 18.7742 140.415 18.7742 97C18.7742 53.9758 53.5847 18.7742 97 18.7742ZM151.758 70.0121L142.762 61.0161C141.198 59.0605 138.069 59.0605 136.113 61.0161L80.9637 115.774L57.496 92.3065C55.5403 90.3508 52.8024 90.3508 50.8468 92.3065L41.8508 100.911C40.2863 102.867 40.2863 105.996 41.8508 107.56L77.4435 143.544C79.3992 145.5 82.1371 145.5 84.0927 143.544L151.758 76.6613C153.323 74.7056 153.323 71.5766 151.758 70.0121Z" fill="#1EAA6B"/>
</svg>
