<svg width="18" height="18" viewBox="0 0 18 18" fill="none" xmlns="http://www.w3.org/2000/svg">
<path d="M16.7143 7.07143H10.9286V1.28571C10.9286 0.602679 10.3259 0 9.64286 0H8.35714C7.63393 0 7.07143 0.602679 7.07143 1.28571V7.07143H1.28571C0.5625 7.07143 0 7.67411 0 8.35714V9.64286C0 10.3661 0.5625 10.9286 1.28571 10.9286H7.07143V16.7143C7.07143 17.4375 7.63393 18 8.35714 18H9.64286C10.3259 18 10.9286 17.4375 10.9286 16.7143V10.9286H16.7143C17.3973 10.9286 18 10.3661 18 9.64286V8.35714C18 7.67411 17.3973 7.07143 16.7143 7.07143Z" fill="#8A8A8A"/>
</svg>
