<svg width="20" height="18" viewBox="0 0 20 18" fill="none" xmlns="http://www.w3.org/2000/svg">
<path d="M18.0078 3.75H3.125C2.77344 3.75 2.5 3.47656 2.5 3.125C2.5 2.8125 2.77344 2.5 3.125 2.5H18.125C18.4375 2.5 18.75 2.22656 18.75 1.875C18.75 0.859375 17.8906 0 16.875 0H2.5C1.09375 0 0 1.13281 0 2.5V15C0 16.4062 1.09375 17.5 2.5 17.5H18.0078C19.1016 17.5 20 16.6797 20 15.625V5.625C20 4.60938 19.1016 3.75 18.0078 3.75ZM16.25 11.875C15.5469 11.875 15 11.3281 15 10.625C15 9.96094 15.5469 9.375 16.25 9.375C16.9141 9.375 17.5 9.96094 17.5 10.625C17.5 11.3281 16.9141 11.875 16.25 11.875Z" fill="black"/>
</svg>
