<svg width="32" height="32" viewBox="0 0 32 32" fill="none" xmlns="http://www.w3.org/2000/svg">
<path d="M12.7229 13.5404C12.7229 14.3732 12.9542 14.4965 13.4785 14.6816L14.2651 14.9592V12.3375H13.8024C13.2164 12.3375 12.7229 12.8773 12.7229 13.5404Z" fill="#FF9900"/>
<path d="M16.5786 20.8195H17.0413C17.6427 20.8195 18.1208 20.2797 18.1208 19.6166C18.1208 18.7838 17.8895 18.6605 17.3651 18.4754L16.5786 18.1978V20.8195Z" fill="#FF9900"/>
<path d="M27.1113 6.52337L23.9499 9.68482C23.7185 9.91614 23.4255 10.0241 23.1325 10.0241C22.8395 10.0241 22.5465 9.91614 22.3152 9.68482C22.1001 9.46716 21.9794 9.17348 21.9794 8.86747C21.9794 8.56145 22.1001 8.26778 22.3152 8.05012L25.4766 4.88867C22.7624 2.57542 19.2617 1.15663 15.4217 1.15663C6.90891 1.15663 0 8.06554 0 16.5783C0 25.0911 6.90891 32 15.4217 32C23.9345 32 30.8434 25.0911 30.8434 16.5783C30.8434 12.7383 29.4246 9.23759 27.1113 6.52337ZM18.1205 16.3007C19.1075 16.6554 20.4337 17.3648 20.4337 19.6318C20.4337 21.5595 18.907 23.1479 17.041 23.1479H16.5783V23.5335C16.5783 24.1658 16.054 24.6901 15.4217 24.6901C14.7894 24.6901 14.2651 24.1658 14.2651 23.5335V23.1479H14.1417C12.0906 23.1479 10.4096 21.4207 10.4096 19.2925C10.4096 18.6448 10.934 18.1205 11.5663 18.1205C12.1986 18.1205 12.7229 18.6448 12.7229 19.2771C12.7229 20.1253 13.3552 20.8193 14.1417 20.8193H14.2651V17.3957L12.7229 16.8559C11.7359 16.5012 10.4096 15.7918 10.4096 13.5248C10.4096 11.5971 11.9364 10.0087 13.8024 10.0087H14.2651V9.63855C14.2651 9.00626 14.7894 8.48193 15.4217 8.48193C16.054 8.48193 16.5783 9.00626 16.5783 9.63855V10.0241H16.7017C18.7528 10.0241 20.4337 11.7513 20.4337 13.8795C20.4337 14.5118 19.9094 15.0361 19.2771 15.0361C18.6448 15.0361 18.1205 14.5118 18.1205 13.8795C18.1205 13.0313 17.4882 12.3373 16.7017 12.3373H16.5783V15.761L18.1205 16.3007Z" fill="#FF9900"/>
<path d="M31.9073 0.709397C31.7853 0.425398 31.559 0.19906 31.275 0.0771083C31.1363 0.0278373 30.9904 0.00178486 30.8432 0H24.6745C24.0422 0 23.5179 0.524337 23.5179 1.15663C23.5179 1.78892 24.0422 2.31325 24.6745 2.31325H28.0519L25.4765 4.88867C26.0625 5.39759 26.6022 5.93735 27.1112 6.52337L29.6866 3.94795V7.3253C29.6866 7.95759 30.2109 8.48193 30.8432 8.48193C31.4755 8.48193 31.9998 7.95759 31.9998 7.3253V1.15663C31.9998 1.00241 31.969 0.863614 31.9073 0.709397Z" fill="#FF9900"/>
</svg>
