<svg width="20" height="20" viewBox="0 0 20 20" fill="none" xmlns="http://www.w3.org/2000/svg">
<path d="M19.9598 9.97988C19.9195 4.4668 15.4527 0 9.97988 0C7.2837 0 4.86922 1.08652 3.05835 2.77666L1.08652 0.804829C0.684105 0.402414 0 0.684105 0 1.24748V7.08249C0 7.44467 0.28169 7.72636 0.643863 7.72636H6.47887C7.04225 7.72636 7.32394 7.04225 6.92153 6.63984L4.86922 4.58753C6.19718 3.34004 8.00805 2.57545 9.97988 2.57545C14.0443 2.57545 17.3843 5.91549 17.3843 9.97988C17.3843 14.0845 14.0443 17.3843 9.97988 17.3843C8.20926 17.3843 6.63984 16.8209 5.35211 15.8149C4.98994 15.493 4.42656 15.5332 4.06439 15.8954L3.62173 16.338C3.21932 16.7404 3.25956 17.4245 3.70221 17.7867C5.39235 19.1549 7.60563 20 9.97988 19.9598C15.4527 19.9598 19.9598 15.493 19.9598 9.97988ZM12.6761 13.159L13.0382 12.6358C13.4004 12.2334 13.3199 11.6298 12.8773 11.3078L11.2676 10.0201V5.79477C11.2676 5.27163 10.8249 4.82897 10.3018 4.82897H9.65795C9.09457 4.82897 8.69215 5.27163 8.69215 5.79477V11.2676L11.3078 13.3199C11.7103 13.6419 12.3139 13.5614 12.6761 13.159Z" fill="black"/>
</svg>
