<svg width="37" height="37" viewBox="0 0 37 37" fill="none" xmlns="http://www.w3.org/2000/svg">
<path d="M37 12.062V3.663C37 1.0545 35.816 0 32.8745 0H25.4005C22.459 0 21.275 1.0545 21.275 3.663V12.0435C21.275 14.6705 22.459 15.7065 25.4005 15.7065H32.8745C35.816 15.725 37 14.6705 37 12.062Z" fill="#8969E2"/>
<path d="M37 32.8744V25.4005C37 22.459 35.816 21.275 32.8745 21.275H25.4005C22.459 21.275 21.275 22.459 21.275 25.4005V32.8744C21.275 35.8159 22.459 36.9999 25.4005 36.9999H32.8745C35.816 36.9999 37 35.8159 37 32.8744Z" fill="#8969E2"/>
<path d="M15.725 12.062V3.663C15.725 1.0545 14.541 0 11.5995 0H4.12551C1.184 0 0 1.0545 0 3.663V12.0435C0 14.6705 1.184 15.7065 4.12551 15.7065H11.5995C14.541 15.725 15.725 14.6705 15.725 12.062Z" fill="#8969E2"/>
<path d="M15.725 32.8744V25.4005C15.725 22.459 14.541 21.275 11.5995 21.275H4.12551C1.184 21.275 0 22.459 0 25.4005V32.8744C0 35.8159 1.184 36.9999 4.12551 36.9999H11.5995C14.541 36.9999 15.725 35.8159 15.725 32.8744Z" fill="#8969E2"/>
</svg>
