<svg width="15" height="12" viewBox="0 0 15 12" fill="none" xmlns="http://www.w3.org/2000/svg">
<path d="M14.7332 6.43281C15 6.16601 15 5.72134 14.7332 5.4249L9.75296 0.444664C9.27866 0 8.53755 0.326087 8.53755 0.948617V3.79447H4.50593C4.09091 3.79447 3.79447 4.12055 3.79447 4.50593V7.35178C3.79447 7.7668 4.09091 8.06324 4.50593 8.06324H8.53755V10.9091C8.53755 11.5613 9.3083 11.8577 9.75296 11.413L14.7332 6.43281ZM5.6917 11.2648V10.0791C5.6917 9.90119 5.51383 9.72332 5.33597 9.72332H2.84585C2.31225 9.72332 1.89723 9.3083 1.89723 8.7747V3.083C1.89723 2.57905 2.31225 2.13439 2.84585 2.13439H5.33597C5.51383 2.13439 5.6917 1.98617 5.6917 1.77866V0.592885C5.6917 0.41502 5.51383 0.237154 5.33597 0.237154H2.84585C1.2747 0.237154 0 1.51186 0 3.083V8.7747C0 10.3458 1.2747 11.6206 2.84585 11.6206H5.33597C5.51383 11.6206 5.6917 11.4723 5.6917 11.2648Z" fill="white"/>
</svg>
