<svg width="27" height="32" viewBox="0 0 27 32" fill="none" xmlns="http://www.w3.org/2000/svg">
<path d="M19.3177 11.5663C18.6854 11.5663 18.161 11.0419 18.161 10.4096V5.01205C18.161 3.34651 17.1278 2.31325 15.4622 2.31325H10.8357C9.17018 2.31325 8.13693 3.34651 8.13693 5.01205V10.4096C8.13693 11.0419 7.61259 11.5663 6.9803 11.5663C6.34801 11.5663 5.82367 11.0419 5.82367 10.4096V5.01205C5.82367 2.06651 7.89018 0 10.8357 0H15.4622C18.4078 0 20.4743 2.06651 20.4743 5.01205V10.4096C20.4743 11.0419 19.9499 11.5663 19.3177 11.5663Z" fill="#3491E6"/>
<path d="M6.98018 25.4921C6.67343 25.4921 6.37923 25.3702 6.16232 25.1533C5.94541 24.9364 5.82356 24.6422 5.82356 24.3354C5.82356 24.0287 5.94541 23.7345 6.16232 23.5176C6.37923 23.3007 6.67343 23.1788 6.98018 23.1788H25.1161C25.5787 23.1788 25.9334 22.7778 25.8872 22.3152L24.8385 13.5402C24.4684 10.5484 23.944 8.09639 18.7007 8.09639H7.59705C2.35367 8.09639 1.82934 10.5484 1.47464 13.5402L0.0866875 25.1065C-0.360541 28.9002 0.811507 32 6.22452 32H20.0732C24.9465 32 26.3807 29.4863 26.3036 26.2169C26.2955 26.0192 26.2103 25.8325 26.0661 25.697C25.9219 25.5614 25.7303 25.4879 25.5325 25.4921H6.98018Z" fill="#3491E6"/>
</svg>
