<svg width="20" height="20" viewBox="0 0 20 20" fill="none" xmlns="http://www.w3.org/2000/svg">
<path d="M10 0C4.47581 0 0 4.51613 0 10C0 15.5242 4.47581 20 10 20C15.4839 20 20 15.5242 20 10C20 4.51613 15.4839 0 10 0ZM13.3065 14.4355C13.1452 14.5968 12.9839 14.7581 12.8226 14.879C12.7016 15 12.621 15.1613 12.5806 15.3226C12.5403 15.5645 12.5 15.7661 12.4194 16.0081L11.6935 17.9032C11.129 18.0242 10.5645 18.0645 10 18.0645V16.9758C10.0403 16.4516 9.67742 15.5242 9.07258 14.9194C8.83065 14.6774 8.70968 14.3548 8.70968 13.9919V12.7016C8.70968 12.2581 8.42742 11.8145 8.02419 11.5726C7.45968 11.25 6.6129 10.8065 6.04839 10.5242C5.60484 10.2823 5.16129 10 4.79839 9.6371H4.75806C4.47581 9.35484 4.23387 9.1129 4.03226 8.79032C3.62903 8.22581 3.02419 7.33871 2.62097 6.73387C3.46774 4.87903 4.91935 3.42742 6.77419 2.62097L7.74194 3.10484C8.18548 3.30645 8.70968 3.02419 8.70968 2.54032V2.05645C8.99194 2.01613 9.35484 1.97581 9.67742 1.97581L10.8065 3.10484C11.0484 3.34677 11.0484 3.79032 10.8065 4.03226L10.6452 4.19355L10.2016 4.6371C10.0806 4.75806 10.0806 4.95968 10.2016 5.08065L10.4032 5.28226C10.5242 5.40323 10.5242 5.60484 10.4032 5.72581L10.0806 6.04839C10 6.12903 9.91935 6.12903 9.83871 6.12903H9.47581C9.39516 6.12903 9.31452 6.16935 9.27419 6.25L8.87097 6.6129C8.79032 6.69355 8.75 6.77419 8.75 6.85484C8.75 6.89516 8.79032 6.97581 8.79032 7.01613L9.43548 8.26613C9.51613 8.46774 9.39516 8.70968 9.15323 8.70968H8.91129C8.83065 8.70968 8.75 8.70968 8.70968 8.66935L8.30645 8.30645C8.22581 8.22581 8.06452 8.18548 7.90323 8.18548C7.82258 8.18548 7.74194 8.18548 7.70161 8.18548L6.45161 8.62903C6.25 8.66935 6.12903 8.87097 6.12903 9.07258C6.12903 9.27419 6.20968 9.43548 6.37097 9.51613L6.81452 9.71774C7.21774 9.91935 7.62097 10 8.06452 10C8.46774 10 8.95161 11.129 9.35484 11.2903H12.0161C12.379 11.2903 12.7016 11.4516 12.9435 11.6935L13.5081 12.2581C13.7097 12.4597 13.871 12.7823 13.871 13.1048C13.871 13.629 13.629 14.1129 13.3065 14.4355ZM16.8145 10.7661C16.5726 10.6855 16.371 10.5645 16.2097 10.3629L15.4839 9.27419C15.4032 9.1129 15.3226 8.91129 15.3226 8.75C15.3226 8.54839 15.4032 8.34677 15.4839 8.18548L16.2903 7.01613C16.371 6.85484 16.4919 6.77419 16.6532 6.69355L17.1774 6.41129C17.7419 7.5 18.0645 8.70968 18.0645 10C18.0645 10.3629 18.0242 10.7258 17.9839 11.0484L16.8145 10.7661Z" fill="#0D3020"/>
</svg>
