<svg width="41" height="39" viewBox="0 0 41 39" fill="none" xmlns="http://www.w3.org/2000/svg">
<ellipse cx="20.5" cy="19.5" rx="20.5" ry="19.5" fill="#1EAA6B"/>
<path d="M22.0391 26.9219C22.4297 26.5312 22.3906 25.9453 22.0391 25.5547L17.3125 21.0625H28.5625C29.0703 21.0625 29.5 20.6719 29.5 20.125V18.875C29.5 18.3672 29.0703 17.9375 28.5625 17.9375H17.3125L22.0391 13.4844C22.3906 13.0938 22.4297 12.5078 22.0391 12.1172L21.1797 11.2578C20.8281 10.9062 20.2031 10.9062 19.8516 11.2578L12.2734 18.875C11.8828 19.2266 11.8828 19.8125 12.2734 20.1641L19.8516 27.7812C20.2031 28.1328 20.7891 28.1328 21.1797 27.7812L22.0391 26.9219Z" fill="white"/>
</svg>
